<svg width="64" height="64" version="1.1" viewBox="0 0 16 16" xml:space="preserve" xmlns="http://www.w3.org/2000/svg"><circle cx="8" cy="8" r="8" fill="#0076f7" stroke-width=".25901"/><path d="m8 8m6.012-3.6072v7.2144q0 0.49599-0.3532 0.84919-0.35321 0.35321-0.8492 0.35321h-2.4349q-0.25551 0-0.42836-0.17286-0.17284-0.17285-0.17284-0.42835 0-0.25551 0.17284-0.42836 0.17285-0.17284 0.42836-0.17284h2.4349v-7.2144h-9.6192v0.090181q0 0.25551-0.17285 0.42835-0.17284 0.17285-0.42835 0.17285t-0.42835-0.17285q-0.17285-0.17285-0.17285-0.42836v-0.09018q0-0.49599 0.35321-0.84919 0.3532-0.35321 0.84919-0.35321h9.6192q0.49599 0 0.8492 0.35321 0.3532 0.3532 0.3532 0.84919zm-8.4168 8.4168q-0.24048 0-0.42084-0.1428-0.18036-0.14278-0.22545-0.38327-0.16533-0.94689-0.8492-1.6082-0.68386-0.66132-1.6308-0.82665-0.22545-0.030059-0.35321-0.21793-0.12775-0.18787-0.12775-0.42835 0-0.25551 0.16533-0.42836 0.16533-0.17284 0.39078-0.14278 1.4128 0.18036 2.4123 1.1874 0.99949 1.007 1.1949 2.4198 0.030061 0.24048-0.13527 0.40581-0.16533 0.16533-0.42084 0.16533zm2.4048 0q-0.25551 0-0.42836-0.16534-0.17284-0.16533-0.2029-0.42084-0.21042-1.9238-1.5706-3.2615-1.3602-1.3377-3.2841-1.5331-0.24048-0.03006-0.38326-0.21042-0.14279-0.18036-0.14279-0.42084 0-0.25551 0.15781-0.43587 0.15782-0.18036 0.38327-0.1503 2.4198 0.19539 4.1182 1.8788 1.6984 1.6834 1.9238 4.1032 0.030063 0.25551-0.14279 0.43587-0.17285 0.18036-0.42836 0.18036zm-5.2605 0q-0.31563 0-0.53357-0.21795-0.21793-0.21792-0.21793-0.53356 0-0.31563 0.21793-0.53356 0.21794-0.21794 0.53357-0.21794t0.53357 0.21794q0.21793 0.21793 0.21793 0.53356 0 0.31563-0.21793 0.53356-0.21794 0.21795-0.53357 0.21795z" fill="#f9f9f9" stroke-width=".01503"/></svg>
